<?xml version="1.0" encoding="utf-8"?>
<!-- Generator: Adobe Illustrator 19.2.0, SVG Export Plug-In . SVG Version: 6.00 Build 0)  -->
<svg version="1.1" id="instagram" xmlns="http://www.w3.org/2000/svg" xmlns:xlink="http://www.w3.org/1999/xlink" x="0px" y="0px"
	 viewBox="0 0 100 100" style="enable-background:new 0 0 100 100;" xml:space="preserve">
<style type="text/css">
	.st0{fill:#F7F7F7;}
</style>
<circle cx="50" cy="50.1" r="48"/>
<g>
	<path class="st0" d="M74.3,68.1c0,3.4-2.8,6.2-6.2,6.2H31.9c-3.4,0-6.2-2.8-6.2-6.2V32c0-3.4,2.8-6.2,6.2-6.2H68
		c3.4,0,6.2,2.8,6.2,6.2v36.1H74.3z M68.8,46.3h-4.3c0.4,1.3,0.6,2.7,0.6,4.1c0,8.1-6.8,14.7-15.1,14.7s-15.1-6.6-15.1-14.7
		c0-1.4,0.2-2.8,0.6-4.1H31v20.5c0,1.1,0.9,1.9,1.9,1.9h33.8c1.1,0,1.9-0.9,1.9-1.9V46.3H68.8z M50,40.5c-5.4,0-9.7,4.2-9.7,9.5
		c0,5.2,4.4,9.5,9.7,9.5c5.4,0,9.8-4.2,9.8-9.5S55.4,40.5,50,40.5z M68.8,33.4c0-1.2-1-2.2-2.2-2.2h-5.5c-1.2,0-2.2,1-2.2,2.2v5.2
		c0,1.2,1,2.2,2.2,2.2h5.5c1.2,0,2.2-1,2.2-2.2V33.4z"/>
</g>
</svg>
